<svg width="600" height="300" version="1.1" viewBox="0 0 158.75 79.375" xmlns="http://www.w3.org/2000/svg">
 <defs>
  <linearGradient id="paint0_linear" x1="144.6" x2="95.791" y1="5.423" y2="173.38" gradientUnits="userSpaceOnUse">
   <stop stop-color="#000014" offset="0"/>
   <stop stop-color="#150426" offset="1"/>
  </linearGradient>
  <linearGradient id="paint1_linear" x1="168.34" x2="126.06" y1="130.49" y2="218.98" gradientUnits="userSpaceOnUse">
   <stop stop-color="#FF1639" offset="0"/>
   <stop stop-color="#FF1639" stop-opacity="0" offset="1"/>
  </linearGradient>
 </defs>
 <g transform="translate(26.458 13.229)">
  <rect x="-26.458" y="-13.229" width="158.75" height="79.375" rx="7.9375" ry="7.9375" fill="#f3f3f3" stroke-width="10.042" style="paint-order:stroke fill markers"/>
 </g>
 <g transform="translate(-23.542 -2.2094)">
  <g transform="matrix(.23393 0 0 .23393 25.341 13.849)" stroke-width="1.131">
   <polygon points="339.42 47.98 392.19 78.45 392.13 100.75 372.19 89.24 371.9 189.21 358.91 181.71 359.19 81.74 339.35 70.28"/>
   <polygon points="400.66 83.34 442.67 107.59 442.61 129.9 413.29 112.97 413.22 139.65 439.81 155 439.75 176.72 413.16 161.37 413.07 190.44 442.39 207.36 442.32 229.87 400.31 205.61"/>
   <polygon points="489.81 87.06 503.4 79.22 483.86 150.14 504.72 200.94 490.73 209.01 476.64 174.65 462.88 225.1 449.19 233 469.69 158.72 449.82 110.15 463.89 102.03 476.81 134.26"/>
   <polygon points="506.89 77.2 557.75 47.83 557.82 70.14 538.6 81.24 538.88 181.22 526.36 188.44 526.08 88.46 506.95 99.51"/>
   <path d="m419.37 27.12s0.19-31.82 27.83-15.83 27.65 47.86 27.65 47.86l-9.22-5.33s0-21.28-18.43-31.92-18.43 10.64-18.43 10.64z"/>
  </g>
  <g transform="matrix(.22235 0 0 .22235 47.254 12.556)" clip-rule="evenodd" fill-rule="evenodd" stroke-width="1.2488">
   <path d="m131.01 18.929c1.944 2.413 2.935 5.67 4.917 12.181l43.309 142.27a180.28 180.28 0 0 0-51.778-17.53l-28.198-95.29a3.67 3.67 0 0 0-7.042 0.01l-27.857 95.232a180.22 180.22 0 0 0-52.01 17.557l43.52-142.28c1.99-6.502 2.983-9.752 4.927-12.16a15.999 15.999 0 0 1 6.484-4.798c2.872-1.154 6.271-1.154 13.07-1.154h31.085c6.807 0 10.211 0 13.086 1.157a16.004 16.004 0 0 1 6.487 4.806z" fill="url(#paint0_linear)"/>
   <path d="m136.19 180.15c-7.139 6.105-21.39 10.268-37.804 10.268-20.147 0-37.033-6.272-41.513-14.707-1.602 4.835-1.961 10.367-1.961 13.902 0 0-1.056 17.355 11.015 29.426 0-6.268 5.081-11.349 11.35-11.349 10.742 0 10.73 9.373 10.72 16.977v0.679c0 11.542 7.054 21.436 17.086 25.606a23.27 23.27 0 0 1-2.339-10.2c0-11.008 6.463-15.107 13.974-19.87 5.976-3.79 12.616-8.001 17.192-16.449a31.024 31.024 0 0 0 3.743-14.82c0-3.299-0.513-6.479-1.463-9.463z" fill="#ff5d01"/>
   <path d="m136.19 180.15c-7.139 6.105-21.39 10.268-37.804 10.268-20.147 0-37.033-6.272-41.513-14.707-1.602 4.835-1.961 10.367-1.961 13.902 0 0-1.056 17.355 11.015 29.426 0-6.268 5.081-11.349 11.35-11.349 10.742 0 10.73 9.373 10.72 16.977v0.679c0 11.542 7.054 21.436 17.086 25.606a23.27 23.27 0 0 1-2.339-10.2c0-11.008 6.463-15.107 13.974-19.87 5.976-3.79 12.616-8.001 17.192-16.449a31.024 31.024 0 0 0 3.743-14.82c0-3.299-0.513-6.479-1.463-9.463z" fill="url(#paint1_linear)"/>
  </g>
 </g>
</svg>
